<svg width="80" height="80" viewBox="0 0 80 80" fill="none" xmlns="http://www.w3.org/2000/svg">
<path d="M32.7506 5.53319C35.6235 -0.622423 44.3765 -0.622417 47.2494 5.53319L54.6797 21.4542C55.4744 23.1569 56.8431 24.5256 58.5458 25.3203L74.4668 32.7506C80.6224 35.6235 80.6224 44.3765 74.4668 47.2494L58.5458 54.6797C56.8431 55.4744 55.4744 56.8431 54.6797 58.5458L47.2494 74.4668C44.3765 80.6224 35.6235 80.6224 32.7506 74.4668L25.3203 58.5458C24.5256 56.8431 23.1569 55.4744 21.4542 54.6797L5.53319 47.2494C-0.622423 44.3765 -0.622417 35.6235 5.53319 32.7506L21.4542 25.3203C23.1569 24.5256 24.5256 23.1569 25.3203 21.4542L32.7506 5.53319Z" fill="#7F6456"/>
</svg>
